<svg xmlns="http://www.w3.org/2000/svg" width="64" height="64" viewBox="0 0 64 64">
    <g fill="none" fill-rule="evenodd">
        <rect width="64" height="64" rx="32"/>
        <g stroke="#651E1B" stroke-linecap="round">
            <path d="M48.954 10.202h-2.422v1.7a3.63 3.63 0 0 1 1.817 3.144 3.633 3.633 0 1 1-5.45-3.143v-1.701h-9.082v1.7a3.63 3.63 0 0 1 1.816 3.144 3.633 3.633 0 1 1-5.45-3.143v-1.701h-9.082v1.7a3.63 3.63 0 0 1 1.816 3.144 3.633 3.633 0 1 1-5.45-3.143v-1.701h-2.421a4.858 4.858 0 0 0-4.844 4.844v33.908a4.858 4.858 0 0 0 4.844 4.844h27.853L53.8 42.9V15.046a4.858 4.858 0 0 0-4.845-4.844z"/>
            <path d="M41.284 52.183v-6.055a4.858 4.858 0 0 1 4.844-4.844h6.055M42.748 32c.1.59.151 1.198.151 1.817 0 6.019-4.88 10.899-10.899 10.899-6.02 0-10.899-4.88-10.899-10.9 0-6.019 4.88-10.899 10.9-10.899a10.86 10.86 0 0 1 7.265 2.776"/>
            <path d="M24.734 30.789L32 38.055l14.532-14.532"/>
        </g>
    </g>
</svg>
