<?xml version="1.0" encoding="UTF-8"?>
<svg width="88px" height="88px" viewBox="0 0 88 88" version="1.1" xmlns="http://www.w3.org/2000/svg" xmlns:xlink="http://www.w3.org/1999/xlink">
    <!-- Generator: Sketch 62 (91390) - https://sketch.com -->
    <title>Free Gift - S Copy</title>
    <desc>Created with Sketch.</desc>
    <g id="Symbols" stroke="none" stroke-width="1" fill="none" fill-rule="evenodd">
        <g id="GLOBAL/MBG-BANNER/MBG-BANNER_MOBILE" transform="translate(-144.000000, -26.000000)">
            <g id="MBG-BANNER">
                <g id="Free-Gift---S-Copy" transform="translate(142.000000, 23.000000)">
                    <g id="Group-4">
                        <g id="Free-Gift-Copy" transform="translate(2.000000, 3.000000)" fill-rule="nonzero">
                            <circle id="Oval" fill="#B0958E" cx="44" cy="44" r="44"></circle>
                            <g id="Group" transform="translate(9.000000, 33.000000)" fill="#FFFFFF">
                                <path d="M17.098,12.221 C18.645,12.221 20.01,11.038 20.01,9.322 C20.01,7.645 18.801,6.397 17.163,6.358 L18.788,3.186 L17.28,2.432 L14.875,7.125 C14.459,7.931 14.147,8.594 14.147,9.257 C14.147,10.973 15.486,12.221 17.098,12.221 Z M17.059,10.583 C16.461,10.583 15.889,10.063 15.889,9.296 C15.889,8.607 16.357,8.035 17.046,8.035 C17.8,8.035 18.268,8.633 18.268,9.296 C18.268,10.05 17.696,10.583 17.059,10.583 Z M24.456,12.221 C26.64,12.221 27.693,10.609 27.693,7.333 C27.693,4.057 26.627,2.432 24.404,2.432 C23.468,2.432 22.675,2.796 22.116,3.485 C21.414,4.343 21.154,5.63 21.154,7.424 C21.154,9.049 21.362,10.232 22.064,11.142 C22.662,11.896 23.416,12.221 24.456,12.221 Z M24.456,10.583 C23.429,10.583 22.948,9.53 22.948,7.463 C22.948,5.253 23.299,4.135 24.443,4.135 C25.457,4.135 25.951,5.201 25.951,7.359 C25.951,9.504 25.444,10.583 24.456,10.583 Z M38.6,11.155 C39.601,10.375 40.199,9.049 40.199,7.45 C40.199,5.968 39.692,4.668 38.847,3.849 C37.833,2.861 36.676,2.666 35.038,2.666 L32.789,2.666 L32.789,12 L35.064,12 C36.429,12 37.534,11.987 38.6,11.155 Z M35.506,10.258 L34.57,10.258 L34.57,4.408 L35.298,4.408 C37.326,4.408 38.405,5.461 38.405,7.411 C38.405,8.321 38.145,9.075 37.716,9.543 C37.17,10.128 36.481,10.258 35.506,10.258 Z M42.968,12 L43.735,10.076 L47.544,10.076 L48.272,12 L50.118,12 L46.517,2.666 L44.723,2.666 L41.122,12 L42.968,12 Z M46.868,8.334 L44.398,8.334 L45.633,5.136 L46.868,8.334 Z M55.37,12 L55.37,7.957 L58.1,2.666 L56.202,2.666 L54.486,6.007 L52.744,2.666 L50.833,2.666 L53.589,7.957 L53.589,12 L55.37,12 Z" id="60DAY"></path>
                                <path d="M24.04875,21 L24.04875,20.475 L21.97875,20.475 L21.97875,15.615 L21.43875,15.615 L21.43875,21 L24.04875,21 Z M27.98625,21 L27.98625,20.475 L25.45125,20.475 L25.45125,18.3525 L27.98625,18.3525 L27.98625,17.8275 L25.45125,17.8275 L25.45125,16.14 L27.98625,16.14 L27.98625,15.615 L24.91125,15.615 L24.91125,21 L27.98625,21 Z M29.99625,21.135 C30.87375,21.135 31.51125,20.445 31.51125,19.6875 C31.51125,18.8175 30.76875,18.3 29.75625,17.55 C29.44875,17.3175 29.27625,17.01 29.27625,16.7175 C29.27625,16.365 29.53875,16.035 30.00375,16.035 C30.44625,16.035 30.70125,16.3125 30.99375,16.695 L31.42875,16.3575 C31.07625,15.8775 30.67875,15.48 30.01875,15.48 C29.29125,15.48 28.71375,15.9975 28.71375,16.74 C28.71375,17.145 28.91625,17.5725 29.17125,17.775 C30.39375,18.765 30.94875,19.1025 30.94875,19.695 C30.94875,20.1975 30.51375,20.61 29.95125,20.61 C29.53875,20.61 29.14875,20.31 28.82625,19.7175 L28.36875,19.995 C28.76625,20.7225 29.25375,21.135 29.99625,21.135 Z M33.73125,21.135 C34.60875,21.135 35.24625,20.445 35.24625,19.6875 C35.24625,18.8175 34.50375,18.3 33.49125,17.55 C33.18375,17.3175 33.01125,17.01 33.01125,16.7175 C33.01125,16.365 33.27375,16.035 33.73875,16.035 C34.18125,16.035 34.43625,16.3125 34.72875,16.695 L35.16375,16.3575 C34.81125,15.8775 34.41375,15.48 33.75375,15.48 C33.02625,15.48 32.44875,15.9975 32.44875,16.74 C32.44875,17.145 32.65125,17.5725 32.90625,17.775 C34.12875,18.765 34.68375,19.1025 34.68375,19.695 C34.68375,20.1975 34.24875,20.61 33.68625,20.61 C33.27375,20.61 32.88375,20.31 32.56125,19.7175 L32.10375,19.995 C32.50125,20.7225 32.98875,21.135 33.73125,21.135 Z M39.54375,21.135 C40.42125,21.135 41.05875,20.445 41.05875,19.6875 C41.05875,18.8175 40.31625,18.3 39.30375,17.55 C38.99625,17.3175 38.82375,17.01 38.82375,16.7175 C38.82375,16.365 39.08625,16.035 39.55125,16.035 C39.99375,16.035 40.24875,16.3125 40.54125,16.695 L40.97625,16.3575 C40.62375,15.8775 40.22625,15.48 39.56625,15.48 C38.83875,15.48 38.26125,15.9975 38.26125,16.74 C38.26125,17.145 38.46375,17.5725 38.71875,17.775 C39.94125,18.765 40.49625,19.1025 40.49625,19.695 C40.49625,20.1975 40.06125,20.61 39.49875,20.61 C39.08625,20.61 38.69625,20.31 38.37375,19.7175 L37.91625,19.995 C38.31375,20.7225 38.80125,21.135 39.54375,21.135 Z M44.08875,20.145 L44.08875,18.555 L45.67875,18.555 L45.67875,18.0525 L44.08875,18.0525 L44.08875,16.4625 L43.57875,16.4625 L43.57875,18.0525 L41.97375,18.0525 L41.97375,18.555 L43.57875,18.555 L43.57875,20.145 L44.08875,20.145 Z M47.29125,21 L47.29125,18.3975 L50.03625,18.3975 L50.03625,21 L50.57625,21 L50.57625,15.615 L50.03625,15.615 L50.03625,17.8725 L47.29125,17.8725 L47.29125,15.615 L46.75125,15.615 L46.75125,21 L47.29125,21 Z" id="LESSS+H"></path>
                            </g>
                            <circle id="Oval" fill="#FFFFFF" cx="7" cy="45" r="2"></circle>
                            <circle id="Oval" fill="#FFFFFF" cx="81" cy="45" r="2"></circle>
                        </g>
                        <path d="M46.5,75.82 C62.1407041,75.82 74.82,63.1407041 74.82,47.5 C74.82,31.8592959 62.1407041,19.18 46.5,19.18 C30.8592959,19.18 18.18,31.8592959 18.18,47.5 C18.18,63.1407041 30.8592959,75.82 46.5,75.82 Z M46.5,77 C30.2075999,77 17,63.7924001 17,47.5 C17,31.2075999 30.2075999,18 46.5,18 C62.7924001,18 76,31.2075999 76,47.5 C76,63.7924001 62.7924001,77 46.5,77 Z" id="Oval" fill="#FFFFFF" fill-rule="nonzero"></path>
                        <g id="Group-2">
                            <circle id="Oval" fill-rule="nonzero" transform="translate(46.636233, 45.888323) rotate(86.000000) translate(-46.636233, -45.888323) " cx="46.6362328" cy="45.8883232" r="42.9683544"></circle>
                            <path d="M39.9107511,105.6239 L42.85034,103.461332 C44.4313908,105.630328 43.991209,107.912513 41.9524618,109.412358 C39.5913082,111.149388 36.870299,110.549755 35.4890463,108.672211 C34.0729135,106.747254 34.3573275,103.99508 36.5952081,102.348738 C37.846904,101.427903 39.1394902,101.178487 40.6846326,101.3717 L40.5258459,102.248474 C39.2066539,102.06441 37.9843715,102.349794 37.1024948,102.998564 C35.4714971,104.19844 34.9794331,106.489564 36.1862851,108.130044 C37.337329,109.694664 39.6808782,110.11893 41.5110094,108.772558 C42.8006354,107.823819 43.392448,106.204658 42.5705755,104.690168 L40.3990727,106.287678 L39.9107511,105.6239 Z M48.7399843,98.6178177 L44.554175,95.256938 L45.0848402,94.5960208 L49.371623,98.0379743 C50.9229426,99.2835634 51.1701814,100.855924 50.0867399,102.205297 C49.0032985,103.55467 47.414656,103.652961 45.8633363,102.407372 L41.5765536,98.9654182 L42.1072188,98.3045009 L46.293028,101.665381 C46.8070748,102.07812 47.2660451,102.446638 47.9775505,102.444227 C48.5640282,102.447109 49.0461826,102.185061 49.4441815,101.689373 C49.8421804,101.193685 49.9938761,100.666304 49.8643601,100.094299 C49.7130013,99.3990748 49.254031,99.0305573 48.7399843,98.6178177 Z M47.8480358,89.9025638 L47.9320107,89.7209079 L57.2591005,89.6879223 L56.8787436,90.5107167 L53.7987463,90.5524251 L52.2674394,93.8649739 L54.2360044,96.2275348 L53.8408285,97.0823861 L47.8480358,89.9025638 Z M52.892681,90.5485867 L49.5117709,90.567913 L51.6775149,93.1772544 L52.892681,90.5485867 Z M58.5195879,86.3597644 L50.2270392,84.7236749 L50.6030208,82.8180057 C50.7739215,81.9517924 50.9615536,81.3048637 51.1914509,80.9302536 C51.6834592,80.1393927 52.5228896,79.7770495 53.4584,79.9616223 C53.8741824,80.0436546 54.1053287,80.1492544 54.4384543,80.4069642 C55.2203565,81.0051968 55.3912277,81.9028432 55.1200652,83.2772349 L59.5677789,81.0469895 L59.3649767,82.0748959 L54.9195417,84.2935919 L54.826116,84.7671218 L58.6836525,85.5281996 L58.5195879,86.3597644 Z M51.534535,82.3538394 L51.1995697,84.0516175 L54.0176502,84.6076145 C54.1087973,84.145634 54.2137725,83.6743828 54.3003622,83.2355014 C54.4416401,82.5194317 54.4817195,81.9513832 54.2636207,81.5363814 C54.0803266,81.188242 53.7148312,80.9121466 53.2874993,80.8278356 C52.4790336,80.6683283 51.7806321,81.1064923 51.534535,82.3538394 Z M51.5066546,74.2813809 L51.4985789,74.0814173 L59.7849609,69.7998797 L59.821539,70.7055971 L57.0992536,72.1468762 L57.2465161,75.7932709 L60.0756856,76.9985685 L60.1136888,77.9395736 L51.5066546,74.2813809 Z M56.2910755,72.5565311 L53.2907639,74.1150743 L56.4079354,75.4501217 L56.2910755,72.5565311 Z M59.12898,65.4854829 L59.3760054,66.2962823 L51.290534,68.759675 L51.2390704,68.5907585 L55.7995639,61.3434738 L49.6059576,63.2304738 L49.3589322,62.4196745 L57.4444036,59.9562817 L57.4992981,60.1364594 L53.0142015,67.3484666 L59.12898,65.4854829 Z M48.8119946,58.7265047 L49.7413097,60.3918456 L49.0217179,60.7934015 L46.7615319,56.7431279 L47.4811236,56.341572 L48.3989657,57.9863531 L55.0603295,54.2690929 L55.4733584,55.0092444 L48.8119946,58.7265047 Z M52.3014162,49.7129973 L45.7984261,55.1124668 L42.7151636,51.3990602 L43.3491598,50.8726495 L45.8909714,53.9339457 L47.9288165,52.2419114 L45.3870049,49.1806152 L46.0210012,48.6542045 L48.5628127,51.7155007 L51.125969,49.5872976 L48.5841574,46.5260014 L49.2181537,45.9995907 L52.3014162,49.7129973 Z M46.7157226,43.2588804 L41.231785,49.6907992 L37.5589623,46.5593028 L38.093608,45.9322355 L41.1214472,48.5138106 L42.8399513,46.4982372 L39.8121121,43.9166621 L40.3467579,43.2895948 L43.3745971,45.8711699 L45.5360934,43.3360264 L42.5082542,40.7544513 L43.0428999,40.127384 L46.7157226,43.2588804 Z" id="GUARANTEE" fill="#FFFFFF" transform="translate(47.367864, 75.285440) rotate(86.000000) translate(-47.367864, -75.285440) "></path>
                        </g>
                        <g id="Group-3" transform="translate(8.000000, 5.000000)">
                            <path d="M2.35820896,40 C24.7666626,-10.493613 62.8413745,5.55177071 74.6796875,40" id="Path-3" fill-rule="nonzero"></path>
                            <path d="M7.27127499,31.7337404 L6.81637272,32.4179548 L0.415158025,26.7853344 L0.493141271,26.6680405 L8.18563412,27.6166484 L4.26883011,20.9890604 L4.34681336,20.8717665 L12.0737432,24.5103905 L11.618841,25.1946049 L6.10692873,22.5602821 L9.51329332,28.3615405 L9.39631845,28.5374814 L2.62331453,27.7149379 L7.27127499,31.7337404 Z M10.2163289,13.7768185 C12.0211625,11.9584936 14.7639673,11.9145982 16.5606246,13.6747818 C18.3320951,15.41029 18.35972,18.1519212 16.5962817,19.9285414 C14.7666109,21.7718891 12.0060825,21.6668054 10.318568,20.0135488 C8.52191068,18.2533652 8.5025648,15.5033931 10.2163289,13.7768185 Z M10.8371367,14.3192158 C9.52904627,15.6370843 9.39470753,17.8745494 10.939497,19.3879783 C12.4255173,20.8438312 14.6508253,20.7206945 15.9920319,19.3694623 C17.3829129,17.9681844 17.4425071,15.7726555 15.9313,14.2921272 C14.4033017,12.7951486 12.1535062,12.9930063 10.8371367,14.3192158 Z M22.1937936,14.737551 L21.462665,15.1662232 L17.1598395,7.92271027 L17.3121579,7.83340356 L25.4417666,10.548056 L22.1457303,4.99940405 L22.8768589,4.57073186 L27.1796844,11.8142448 L27.0172114,11.9095053 L18.9397069,9.25951825 L22.1937936,14.737551 Z M29.6821212,10.7188261 L27.555535,2.57764447 L32.2348614,1.37120392 L32.4421887,2.16491244 L28.5845977,3.15949025 L29.2510071,5.71069619 L33.108598,4.71611838 L33.3159254,5.50982689 L29.4583344,6.50440471 L30.2965292,9.71325484 L34.1541202,8.71867703 L34.3614475,9.51238554 L29.6821212,10.7188261 Z M38.5716222,9.30781404 L38.6745124,5.29111453 L36.0641518,0.830836934 L37.0424918,0.855572465 L39.1225503,4.37671415 L41.3448302,0.964349199 L42.3231701,0.98908473 L39.5231928,5.31257186 L39.4203027,9.32927137 L38.5716222,9.30781404 Z M44.2223472,6.79531365 L44.3994162,6.11482736 L47.4702541,6.90351909 L47.293185,7.58400538 L44.2223472,6.79531365 Z M50.6588012,12.0317953 L48.5688253,11.0247047 L52.2633899,3.45702002 L53.8759601,4.23406459 C55.4779214,5.00599703 55.8291665,6.13869072 55.3094576,7.20322575 C54.9852827,7.86724265 54.3891481,8.28303593 53.5564376,8.32444187 C54.4423876,9.19401372 54.6644181,10.1082096 54.2013111,11.0568051 C53.6507284,12.1845799 52.2607625,12.8037278 50.6588012,12.0317953 Z M52.6670446,4.56289032 L51.4784034,6.99761895 L51.9876361,7.24300144 C52.5605229,7.51905675 53.0421209,7.65998678 53.4633041,7.60255182 C53.9108508,7.54480119 54.3079562,7.24141363 54.5137815,6.8198156 C54.843102,6.14525875 54.5448403,5.46773827 53.664292,5.04343104 L52.6670446,4.56289032 Z M51.1182091,7.7354155 L49.6928687,10.6549819 L50.615853,11.0997376 C50.9447324,11.2582138 51.2993401,11.3639903 51.5642477,11.4656016 C52.0940629,11.6688243 53.0300038,11.4428114 53.4004894,10.6839349 C53.6423341,10.1885573 53.5929076,9.59188391 53.2496061,9.11399113 C52.9223771,8.65686258 52.3488548,8.3284232 51.6380508,7.98591013 L51.1182091,7.7354155 Z M63.0297987,9.96146746 L63.1853654,10.0870498 L60.9121836,19.0893962 L60.2075576,18.520582 L60.9282982,15.540255 L58.0914924,13.250224 L55.3117798,14.5684317 L54.5797008,13.9774559 L63.0297987,9.96146746 Z M61.1559588,14.6674657 L61.972795,11.40246 L58.9048161,12.8502153 L61.1559588,14.6674657 Z M72.6354646,22.330456 L71.8199137,22.1229015 C72.1212832,20.9395424 71.8370095,19.8159634 71.0792973,18.8730225 C69.8287043,17.3167122 67.615676,16.9284566 65.929376,18.2659193 C64.2891499,19.5668393 64.0917062,21.7619976 65.4232199,23.4190102 C66.1588629,24.3344869 67.1619642,24.8129919 68.3735958,24.8562952 L68.3966778,25.6923899 C66.99533,25.6946255 65.7419563,25.0548744 64.778264,23.8556 C63.012721,21.6584561 63.4886193,19.0775624 65.4329324,17.5354606 C67.3864601,15.9860503 70.0764899,16.3107571 71.7169736,18.3522699 C72.6880222,19.5606991 73.0254187,20.9569222 72.6354646,22.330456 Z M68.6227291,28.5536591 L75.9846208,24.4005378 L76.4038187,25.1339717 L73.6456727,26.6899461 L78.0747883,28.0575208 L78.6395411,29.0456193 L73.3293117,27.3937903 L71.4348487,33.4737784 L70.8817403,32.5060531 L72.4767929,27.3493554 L69.0419271,29.2870931 L68.6227291,28.5536591 Z" id="MONEY-BACK" fill="#FFFFFF" transform="translate(39.527350, 17.152308) rotate(1.000000) translate(-39.527350, -17.152308) "></path>
                        </g>
                    </g>
                </g>
            </g>
        </g>
    </g>
</svg>