<?xml version="1.0" encoding="UTF-8"?>
<svg width="48px" height="48px" viewBox="0 0 29 28" version="1.1" xmlns="http://www.w3.org/2000/svg" xmlns:xlink="http://www.w3.org/1999/xlink">
    <!-- Generator: Sketch 62 (91390) - https://sketch.com -->
    <title>IconMBG</title>
    <desc>Created with Sketch.</desc>
    <g id="Main" stroke="none" stroke-width="1" fill="none" fill-rule="evenodd">
        <g id="Desktop---Product-Details-Page_StickyCTA" transform="translate(-1155.000000, -535.000000)">
            <g id="Payment-Method---Subscription" transform="translate(774.000000, 445.000000)">
                <g id="Payment-Method">
                    <g id="Copy" transform="translate(6.000000, 76.000000)">
                        <g id="Group-5">
                            <g id="Group" transform="translate(320.000000, 0.000000)">
                                <g id="IconMBG" transform="translate(54.000000, 13.000000)">
                                    <g id="Control-&amp;-Navigation_channels" stroke-width="1" transform="translate(1.875000, 1.875000)" stroke="#B7948D" stroke-linecap="round" stroke-linejoin="round">
                                        <path d="M25.4394269,9.31495069 C26.4916777,12.7038109 26.0705304,16.1983013 24.5389962,19.1086078 C23.007462,22.0189142 20.3655433,24.3450308 16.9762504,25.3971481 C13.5869586,26.4492631 10.0920224,26.0281682 7.18134581,24.4968295 C4.27066925,22.9654908 1.94425344,20.3239083 0.8920035,16.9350493 C-0.160246438,13.5461903 0.2609015,10.0516987 1.79243537,7.14139288 C3.32396925,4.23108706 5.9658885,1.90496869 9.35518,0.8528525 C12.7444715,-0.199263687 16.2394092,0.221830938 19.1500852,1.75316963" id="Path"></path>
                                        <polyline id="Path" points="24.0625 10.9227216 25.1615095 8.75 27.4981666 9.33409094"></polyline>
                                    </g>
                                    <path d="M9.3125,14.0625 L11.625,9.55 L13.075,10.275 L11.5125,13.325 C13.0875,13.3625 14.25,14.5625 14.25,16.175 C14.25,17.825 12.9375,18.9625 11.45,18.9625 C9.9,18.9625 8.6125,17.7625 8.6125,16.1125 C8.6125,15.475 8.9125,14.8375 9.3125,14.0625 Z M11.4,14.9375 C10.7375,14.9375 10.2875,15.4875 10.2875,16.15 C10.2875,16.8875 10.8375,17.3875 11.4125,17.3875 C12.025,17.3875 12.575,16.875 12.575,16.15 C12.575,15.5125 12.125,14.9375 11.4,14.9375 Z M18.475,9.55 C20.6125,9.55 21.6375,11.1125 21.6375,14.2625 C21.6375,17.4125 20.625,18.9625 18.525,18.9625 C17.525,18.9625 16.8,18.65 16.225,17.925 C15.55,17.05 15.35,15.9125 15.35,14.35 C15.35,12.625 15.6,11.3875 16.275,10.5625 C16.8125,9.9 17.575,9.55 18.475,9.55 Z M18.5125,11.1875 C17.4125,11.1875 17.075,12.2625 17.075,14.3875 C17.075,16.375 17.5375,17.3875 18.525,17.3875 C19.475,17.3875 19.9625,16.35 19.9625,14.2875 C19.9625,12.2125 19.4875,11.1875 18.5125,11.1875 Z" id="60" fill="#B7948D"></path>
                                </g>
                            </g>
                        </g>
                    </g>
                </g>
            </g>
        </g>
    </g>
</svg>