<svg xmlns="http://www.w3.org/2000/svg" width="64" height="64" viewBox="0 0 64 64">
    <g fill="none" fill-rule="evenodd">
        <rect width="64" height="64" fill-rule="nonzero" rx="32"/>
        <g stroke="#651E1B" stroke-linecap="round">
            <path d="M24.165 25.97a1.924 1.924 0 1 1-3.847 0 1.924 1.924 0 0 1 3.847 0z"/>
            <path d="M53.657 30.672c0-9.56-9.472-17.31-21.157-17.31-3.653 0-7.09.757-10.089 2.09-1.613.718.9-3.238-6.83-3.238-1.276 0 1.394 6.644.526 7.513-1.85 1.853-3.24 4.026-4.028 6.4-.302.914-5.865 1.827-5.865 2.408 0 1.555.25 5.2.72 6.634.264.802 5.724 1.581 6.12 2.332 1.933 3.681 5.383 6.702 9.704 8.54.44 1.344.8 3.108.8 5.3 0 0-.125 1.13 1.13 1.13h2.259s1.13 0 1.13-1.13V47.6c1.426.248 2.906.381 4.423.381 2.705 0 5.289-.42 7.667-1.176v4.534c0 1.13 1.129 1.13 1.129 1.13h2.26c1.255 0 1.129-1.13 1.129-1.13 0-3.855 1.052-6.4 1.72-7.628 4.442-3.173 7.252-7.837 7.252-13.04zM28.44 21.055h11.54"/>
            <path d="M53.99 30.124s7.843 1.569 3.137 7.843c-2.662 3.549-4.706 0-3.137-1.569 1.569-1.569 3.137 0 3.137 0s3.137 1.569-1.568 6.274"/>
        </g>
    </g>
</svg>
